<svg width="21" height="21" viewBox="0 0 21 21" fill="none" xmlns="http://www.w3.org/2000/svg">
<path fill-rule="evenodd" clip-rule="evenodd" d="M21 10.5C21 16.299 16.299 21 10.5 21C4.70101 21 0 16.299 0 10.5C0 4.70101 4.70101 0 10.5 0C16.299 0 21 4.70101 21 10.5ZM11.4545 5.72727C11.4545 5.20009 11.0272 4.77273 10.5 4.77273C9.97282 4.77273 9.54545 5.20009 9.54545 5.72727V10.7386C9.54545 11.1179 9.76996 11.4611 10.1174 11.6131L13.9356 13.2836C14.4186 13.4949 14.9814 13.2747 15.1927 12.7917C15.404 12.3087 15.1838 11.7459 14.7008 11.5346L11.4545 10.1143V5.72727Z" fill="#F9F4F2"/>
</svg>
