<svg width="18" height="22" viewBox="0 0 18 22" fill="none" xmlns="http://www.w3.org/2000/svg">
<path fill-rule="evenodd" clip-rule="evenodd" d="M0 8.75811C0 3.91472 4.04738 0 8.9431 0C13.8526 0 17.9 3.91472 17.9 8.75811C17.9 11.1988 17.0124 13.4646 15.5514 15.3851C13.9397 17.5036 11.9531 19.3493 9.71711 20.7981C9.20535 21.133 8.74349 21.1582 8.18182 20.7981C5.93304 19.3493 3.94651 17.5036 2.34858 15.3851C0.886559 13.4646 0 11.1988 0 8.75811ZM5.99577 9.03067C5.99577 10.6532 7.31977 11.9293 8.94318 11.9293C10.5677 11.9293 11.9044 10.6532 11.9044 9.03067C11.9044 7.42077 10.5677 6.08252 8.94318 6.08252C7.31977 6.08252 5.99577 7.42077 5.99577 9.03067Z" fill="#F9F4F2"/>
</svg>
