<svg width="190" height="182" viewBox="0 0 190 182" fill="none" xmlns="http://www.w3.org/2000/svg">
<path d="M147.219 113.364C130.905 150.508 94.2673 170.238 65.4318 157.573C36.5963 144.908 26.3376 104.58 42.6518 67.4363C58.9661 30.2926 95.6035 10.5624 124.439 23.2275C153.274 35.8926 163.533 76.2205 147.219 113.364Z" stroke="#F9F4F2" stroke-width="0.4"/>
<path fill-rule="evenodd" clip-rule="evenodd" d="M126.342 140.722C160.924 118.573 174.558 78.5838 157.19 51.4671C139.823 24.3504 97.7968 20.0103 63.2146 42.1594C28.6323 64.3085 14.9983 104.297 32.3659 131.414C49.7335 158.531 91.7593 162.871 126.342 140.722ZM126.655 141.211C161.394 118.961 175.284 78.6412 157.679 51.1538C140.074 23.6664 97.6407 19.4205 62.9013 41.6702C28.1619 63.92 14.2717 104.24 31.8768 131.727C49.4818 159.215 91.9154 163.461 126.655 141.211Z" fill="#F9F4F2"/>
<path d="M41.0129 90.0323C40.0769 89.4666 39.6402 88.5238 39.6402 86.3241V45.1567H39.2034L33.2756 46.4766C33.2756 46.4766 33.2756 46.8537 33.2756 46.9794C34.5236 47.168 34.7108 47.7965 34.7108 49.9963V60.8066C33.65 60.4924 32.4021 60.2409 30.9669 60.2409C24.0408 60.2409 9.68944 62.8807 10.0638 78.4049C10.3134 86.4498 16.5531 90.8493 21.6073 90.8493C30.343 90.8493 33.5252 80.9189 34.7108 73.6282V90.4722H41.0129C41.0129 90.4722 41.0129 90.158 41.0129 90.0323ZM24.4152 89.718C19.049 90.7236 15.2428 84.8156 14.9308 79.3476C14.0573 63.3206 24.9144 60.6809 30.9669 60.5552C32.9636 60.5552 34.3988 61.058 34.7108 61.1209V69.92C34.7108 75.1995 31.4037 88.3353 24.4152 89.718Z" fill="#F9F4F2"/>
<path d="M69.49 70.1714H70.8627C70.8627 70.1714 74.7313 70.1714 75.2929 70.1714C74.4193 62.5664 67.1189 59.9895 61.8151 60.2409C54.9514 60.6181 45.155 65.3319 45.467 76.2051C45.7166 86.5755 54.0154 90.8493 62.6263 90.8493C71.4867 90.8493 75.4177 84.9413 75.7921 80.4789C76.2913 74.7595 73.0466 71.1141 69.49 70.1714ZM59.0072 60.9952C65.1222 59.801 69.9891 64.2006 70.8003 69.6686H50.8956C52.0187 65.3947 54.7642 61.8122 59.0072 60.9952ZM75.2305 80.6046C74.6065 85.507 69.9267 89.2152 64.5606 89.4666C58.196 89.718 53.5163 86.8269 51.2076 80.2275C50.1468 77.2107 49.9596 73.5025 50.7708 70.1714H66.9317C71.6739 70.1714 75.9793 74.0681 75.2305 80.6046Z" fill="#F9F4F2"/>
<path d="M95.5482 60.2409C88.934 60.2409 87.1869 69.48 86.563 77.085V60.2409H86.0638L80.1984 61.6237C80.1984 61.6237 80.1984 61.9379 80.1984 62.0636C81.4464 62.2522 81.6336 62.8807 81.6336 65.0805V86.3241C81.6336 88.5238 81.1968 89.4666 80.1984 90.0323C80.1984 90.158 80.1984 90.4722 80.1984 90.4722H87.9357C87.9357 90.4722 87.9357 90.158 87.9357 90.0323C86.9997 89.4666 86.563 88.5238 86.563 86.3241V83.8729C86.563 78.5306 87.3741 62.315 93.4891 61.3723C96.8585 60.8695 98.6056 65.5204 98.7304 69.1029L99.1672 69.3543L102.973 63.9491C100.852 61.4351 98.9176 60.2409 95.5482 60.2409Z" fill="#F9F4F2"/>
<path d="M151.099 86.3241C150.849 83.9986 150.288 77.3992 149.601 71.3027C148.853 63.9491 145.358 60.2409 140.429 60.2409C134.127 60.2409 131.818 65.8975 131.069 71.9941L131.007 71.3027C130.757 64.3891 126.639 60.2409 121.834 60.2409C114.347 60.2409 112.475 67.5317 111.789 74.1938V60.2409H111.352L105.486 61.6237C105.486 61.6237 105.486 61.9379 105.486 62.0636C106.734 62.2522 106.922 62.8807 106.922 65.0805V86.3241C106.922 88.5238 106.422 89.4666 105.486 90.0323C105.486 90.158 105.486 90.4722 105.486 90.4722H113.224C113.224 90.4722 113.224 90.158 113.224 90.0323C112.288 89.4666 111.789 88.5238 111.789 86.3241V81.1703C111.789 75.828 112.101 62.6921 119.089 61.3723C123.956 60.4295 126.14 65.5833 126.14 70.3599V86.3241C126.14 88.5238 125.703 89.4666 124.767 90.0323C124.767 90.158 124.767 90.4722 124.767 90.4722H132.442C132.442 90.4722 132.442 90.158 132.442 90.0323C131.506 89.4666 131.069 88.5238 131.069 86.3241V78.9705C131.132 72.3712 131.88 62.6293 137.621 61.3723C142.488 60.3038 144.298 65.6461 144.797 70.3599C145.109 73.6282 145.982 84.25 146.232 86.3241C146.419 88.3981 146.107 89.4666 145.171 90.0323C145.171 90.158 145.171 90.4722 145.171 90.4722H152.846C152.846 90.4722 152.846 90.158 152.846 90.0323C151.91 89.4666 151.348 88.5867 151.099 86.3241Z" fill="#F9F4F2"/>
<path d="M76.7746 130.013C75.8322 129.447 75.3924 128.504 75.3924 126.305V110.718C75.3924 102.987 69.8636 100.221 64.6489 100.221C56.23 100.221 54.2824 108.015 55.9159 111.66C51.0782 113.672 47.2457 117.443 48.3138 123.853C49.1305 128.379 54.1567 130.83 59.3086 130.83C65.34 130.83 68.7955 127.184 70.4291 121.654V130.453H76.7746C76.7746 130.453 76.7746 130.138 76.7746 130.013ZM64.0835 100.85C68.5442 100.85 70.4291 105.061 70.4291 109.838V110.278C69.361 109.963 68.1044 109.712 66.6594 109.712C63.7065 109.712 59.9369 110.152 56.5442 111.409C54.6594 106.318 58.429 100.85 64.0835 100.85ZM60.8165 130.013C57.6751 130.201 54.0311 128.127 53.2143 124.733C50.5127 113.672 59.8112 110.278 66.6594 110.278C68.6071 110.278 70.1149 110.718 70.4291 110.843V120.522C69.1725 125.048 66.2824 129.698 60.8165 130.013Z" fill="#F9F4F2"/>
<path d="M93.2894 100.221C86.4412 100.221 84.1794 103.93 83.6768 108.015C82.169 120.334 104.096 116.688 102.902 124.922C102.525 127.624 99.1324 129.95 94.6088 129.95C89.0172 129.95 84.3051 124.733 82.169 120.334H81.8548L80.5355 126.619C83.9281 129.133 87.6978 130.83 92.7868 130.83C99.8235 130.83 104.473 127.122 104.85 122.156C105.541 111.912 84.3679 114.174 85.2475 105.752C85.5617 103.175 87.9491 100.787 92.2214 100.787C95.8025 100.787 99.8235 104.684 101.771 110.026H102.085L103.342 104.244C100.829 102.295 96.5565 100.221 93.2894 100.221Z" fill="#F9F4F2"/>
<path d="M121.451 100.221C114.603 100.221 112.341 103.93 111.839 108.015C110.331 120.334 132.258 116.688 131.064 124.922C130.687 127.624 127.294 129.95 122.771 129.95C117.179 129.95 112.467 124.733 110.331 120.334H110.017L108.697 126.619C112.09 129.133 115.86 130.83 120.949 130.83C127.985 130.83 132.635 127.122 133.012 122.156C133.703 111.912 112.53 114.174 113.409 105.752C113.724 103.175 116.111 100.787 120.383 100.787C123.964 100.787 127.985 104.684 129.933 110.026H130.247L131.504 104.244C128.991 102.295 124.718 100.221 121.451 100.221Z" fill="#F9F4F2"/>
<path d="M165.494 130.013C164.552 129.447 164.112 128.504 164.112 126.305V110.718C164.112 102.987 158.583 100.221 153.368 100.221C144.949 100.221 143.002 108.015 144.635 111.66C139.798 113.672 135.965 117.443 137.033 123.853C137.85 128.379 142.876 130.83 148.028 130.83C154.059 130.83 157.515 127.184 159.148 121.654V130.453H165.494C165.494 130.453 165.494 130.138 165.494 130.013ZM152.803 100.85C157.264 100.85 159.148 105.061 159.148 109.838V110.278C158.08 109.963 156.824 109.712 155.379 109.712C152.426 109.712 148.656 110.152 145.264 111.409C143.379 106.318 147.148 100.85 152.803 100.85ZM149.536 130.013C146.394 130.201 142.75 128.127 141.934 124.733C139.232 113.672 148.531 110.278 155.379 110.278C157.326 110.278 158.834 110.718 159.148 110.843V120.522C157.892 125.048 155.002 129.698 149.536 130.013Z" fill="#F9F4F2"/>
<path d="M176.214 126.305V85.1372H175.774L169.868 86.4571C169.868 86.4571 169.868 86.8342 169.868 86.9599C171.062 87.1484 171.251 87.7769 171.251 89.9767V126.305C171.251 128.504 170.811 129.447 169.868 130.013C169.868 130.138 169.868 130.453 169.868 130.453H177.596C177.596 130.453 177.596 130.138 177.596 130.013C176.654 129.447 176.214 128.504 176.214 126.305Z" fill="#F9F4F2"/>
</svg>
