<svg width="78" height="75" viewBox="0 0 78 75" fill="none" xmlns="http://www.w3.org/2000/svg">
<path d="M60.6793 46.6386C54.0612 61.7065 39.224 69.6634 27.5845 64.5511C15.9449 59.4388 11.7659 43.1296 18.384 28.0617C25.0021 12.9938 39.8393 5.03684 51.4788 10.1492C63.1184 15.2615 67.2974 31.5707 60.6793 46.6386Z" stroke="#F9F4F2" stroke-width="0.4"/>
<path opacity="0.5" fill-rule="evenodd" clip-rule="evenodd" d="M52.2997 57.8083C66.3594 48.8034 71.9025 32.5456 64.8415 21.5211C57.7806 10.4966 40.6947 8.73204 26.635 17.7369C12.5753 26.7418 7.03225 42.9997 14.0932 54.0242C21.1541 65.0487 38.24 66.8132 52.2997 57.8083ZM52.4271 58.0072C66.5507 48.9613 72.1979 32.5689 65.0404 21.3937C57.8829 10.2185 40.6312 8.49224 26.5076 17.5381C12.384 26.5839 6.73685 42.9763 13.8943 54.1515C21.0518 65.3268 38.3035 67.053 52.4271 58.0072Z" fill="#F9F4F2"/>
<path d="M17.609 37.2001C17.2284 36.9701 17.0509 36.5868 17.0509 35.6925V18.9556H16.8733L14.4633 19.4922C14.4633 19.4922 14.4633 19.6455 14.4633 19.6966C14.9707 19.7732 15.0468 20.0288 15.0468 20.9231V25.3181C14.6155 25.1904 14.1082 25.0882 13.5247 25.0882C10.7088 25.0882 4.87415 26.1614 5.02636 32.4729C5.12783 35.7436 7.66465 37.5323 9.71947 37.5323C13.271 37.5323 14.5648 33.495 15.0468 30.5309V37.3789H17.609C17.609 37.3789 17.609 37.2512 17.609 37.2001ZM10.861 37.0723C8.67937 37.4812 7.13191 35.0792 7.00507 32.8561C6.64992 26.3402 11.064 25.267 13.5247 25.2159C14.3365 25.2159 14.9199 25.4204 15.0468 25.4459V29.0233C15.0468 31.1697 13.7023 36.5102 10.861 37.0723Z" fill="#F9F4F2"/>
<path d="M29.1865 29.1255H29.7446C29.7446 29.1255 31.3175 29.1255 31.5458 29.1255C31.1906 26.0336 28.2226 24.986 26.0663 25.0882C23.2758 25.2415 19.293 27.1579 19.4198 31.5785C19.5213 35.7947 22.8952 37.5323 26.396 37.5323C29.9983 37.5323 31.5965 35.1303 31.7487 33.3161C31.9517 30.9908 30.6325 29.5088 29.1865 29.1255ZM24.9247 25.3948C27.4108 24.9093 29.3895 26.698 29.7193 28.9211H21.6268C22.0835 27.1835 23.1997 25.727 24.9247 25.3948ZM31.5204 33.3672C31.2667 35.3603 29.3641 36.8679 27.1825 36.9701C24.5949 37.0723 22.6923 35.8969 21.7537 33.2139C21.3224 31.9874 21.2463 30.4798 21.5761 29.1255H28.1464C30.0744 29.1255 31.8248 30.7097 31.5204 33.3672Z" fill="#F9F4F2"/>
<path d="M39.7807 25.0882C37.0917 25.0882 36.3814 28.8444 36.1277 31.9363V25.0882H35.9248L33.5401 25.6503C33.5401 25.6503 33.5401 25.7781 33.5401 25.8292C34.0475 25.9059 34.1236 26.1614 34.1236 27.0557V35.6925C34.1236 36.5868 33.946 36.9701 33.5401 37.2001C33.5401 37.2512 33.5401 37.3789 33.5401 37.3789H36.6858C36.6858 37.3789 36.6858 37.2512 36.6858 37.2001C36.3053 36.9701 36.1277 36.5868 36.1277 35.6925V34.6959C36.1277 32.524 36.4575 25.9314 38.9436 25.5481C40.3134 25.3437 41.0238 27.2346 41.0745 28.6911L41.2521 28.7933L42.7995 26.5958C41.937 25.5737 41.1506 25.0882 39.7807 25.0882Z" fill="#F9F4F2"/>
<path d="M62.3653 35.6925C62.2638 34.747 62.0355 32.064 61.7565 29.5854C61.452 26.5958 60.0314 25.0882 58.0273 25.0882C55.4652 25.0882 54.5265 27.3879 54.2221 29.8665L54.1968 29.5854C54.0953 26.7746 52.421 25.0882 50.4676 25.0882C47.4235 25.0882 46.6624 28.0523 46.3834 30.7608V25.0882H46.2058L43.8212 25.6503C43.8212 25.6503 43.8212 25.7781 43.8212 25.8292C44.3285 25.9059 44.4047 26.1614 44.4047 27.0557V35.6925C44.4047 36.5868 44.2017 36.9701 43.8212 37.2001C43.8212 37.2512 43.8212 37.3789 43.8212 37.3789H46.9668C46.9668 37.3789 46.9668 37.2512 46.9668 37.2001C46.5863 36.9701 46.3834 36.5868 46.3834 35.6925V33.5972C46.3834 31.4252 46.5102 26.0847 49.3514 25.5481C51.3302 25.1648 52.218 27.2601 52.218 29.2021V35.6925C52.218 36.5868 52.0405 36.9701 51.6599 37.2001C51.6599 37.2512 51.6599 37.3789 51.6599 37.3789H54.7802C54.7802 37.3789 54.7802 37.2512 54.7802 37.2001C54.3997 36.9701 54.2221 36.5868 54.2221 35.6925V32.7028C54.2475 30.0198 54.5519 26.0592 56.8858 25.5481C58.8645 25.1137 59.6002 27.2857 59.8031 29.2021C59.93 30.5309 60.2851 34.8492 60.3866 35.6925C60.4627 36.5357 60.3358 36.9701 59.9553 37.2001C59.9553 37.2512 59.9553 37.3789 59.9553 37.3789H63.0756C63.0756 37.3789 63.0756 37.2512 63.0756 37.2001C62.6951 36.9701 62.4668 36.6124 62.3653 35.6925Z" fill="#F9F4F2"/>
<path d="M32.1476 53.455C31.7644 53.225 31.5856 52.8417 31.5856 51.9474V45.6103C31.5856 42.4674 29.3379 41.3431 27.2178 41.3431C23.795 41.3431 23.0032 44.5116 23.6673 45.9936C21.7005 46.8113 20.1424 48.3445 20.5766 50.9508C20.9087 52.7906 22.9521 53.7871 25.0466 53.7871C27.4988 53.7871 28.9036 52.3051 29.5677 50.0565V53.6338H32.1476C32.1476 53.6338 32.1476 53.5061 32.1476 53.455ZM26.9879 41.5986C28.8015 41.5986 29.5677 43.3106 29.5677 45.2526V45.4315C29.1335 45.3037 28.6227 45.2015 28.0352 45.2015C26.8346 45.2015 25.3021 45.3804 23.9227 45.8914C23.1564 43.8217 24.689 41.5986 26.9879 41.5986ZM25.6597 53.455C24.3825 53.5316 22.901 52.6884 22.569 51.3085C21.4706 46.8113 25.251 45.4315 28.0352 45.4315C28.827 45.4315 29.44 45.6103 29.5677 45.6614V49.5965C29.0569 51.4363 27.8819 53.3272 25.6597 53.455Z" fill="#F9F4F2"/>
<path d="M38.8618 41.3431C36.0776 41.3431 35.1581 42.8507 34.9537 44.5116C34.3407 49.5199 43.2552 48.0378 42.7699 51.3852C42.6166 52.484 41.2373 53.4294 39.3982 53.4294C37.1249 53.4294 35.2092 51.3085 34.3407 49.5199H34.213L33.6766 52.0751C35.0559 53.0972 36.5885 53.7871 38.6575 53.7871C41.5183 53.7871 43.4085 52.2795 43.5617 50.2609C43.8427 46.0958 35.2347 47.0157 35.5923 43.5917C35.72 42.544 36.6907 41.573 38.4276 41.573C39.8835 41.573 41.5183 43.1573 42.3101 45.3293H42.4378L42.9487 42.9784C41.927 42.1863 40.1901 41.3431 38.8618 41.3431Z" fill="#F9F4F2"/>
<path d="M50.3113 41.3431C47.5271 41.3431 46.6075 42.8507 46.4032 44.5116C45.7902 49.5199 54.7047 48.0378 54.2194 51.3852C54.0661 52.484 52.6868 53.4294 50.8477 53.4294C48.5744 53.4294 46.6586 51.3085 45.7902 49.5199H45.6625L45.126 52.0751C46.5054 53.0972 48.038 53.7871 50.1069 53.7871C52.9678 53.7871 54.8579 52.2795 55.0112 50.2609C55.2922 46.0958 46.6842 47.0157 47.0418 43.5917C47.1695 42.544 48.1401 41.573 49.8771 41.573C51.333 41.573 52.9678 43.1573 53.7596 45.3293H53.8873L54.3982 42.9784C53.3764 42.1863 51.6395 41.3431 50.3113 41.3431Z" fill="#F9F4F2"/>
<path d="M68.2172 53.455C67.834 53.225 67.6552 52.8417 67.6552 51.9474V45.6103C67.6552 42.4674 65.4074 41.3431 63.2873 41.3431C59.8646 41.3431 59.0727 44.5116 59.7369 45.9936C57.77 46.8113 56.2119 48.3445 56.6462 50.9508C56.9782 52.7906 59.0217 53.7871 61.1162 53.7871C63.5683 53.7871 64.9732 52.3051 65.6373 50.0565V53.6338H68.2172C68.2172 53.6338 68.2172 53.5061 68.2172 53.455ZM63.0575 41.5986C64.871 41.5986 65.6373 43.3106 65.6373 45.2526V45.4315C65.2031 45.3037 64.6922 45.2015 64.1047 45.2015C62.9042 45.2015 61.3716 45.3804 59.9923 45.8914C59.226 43.8217 60.7586 41.5986 63.0575 41.5986ZM61.7292 53.455C60.4521 53.5316 58.9706 52.6884 58.6385 51.3085C57.5402 46.8113 61.3205 45.4315 64.1047 45.4315C64.8966 45.4315 65.5096 45.6103 65.6373 45.6614V49.5965C65.1264 51.4363 63.9515 53.3272 61.7292 53.455Z" fill="#F9F4F2"/>
<path d="M72.5754 51.9474V35.2104H72.3966L69.9956 35.7471C69.9956 35.7471 69.9956 35.9004 69.9956 35.9515C70.4809 36.0281 70.5575 36.2837 70.5575 37.178V51.9474C70.5575 52.8417 70.3787 53.225 69.9956 53.455C69.9956 53.5061 69.9956 53.6338 69.9956 53.6338H73.1374C73.1374 53.6338 73.1374 53.5061 73.1374 53.455C72.7542 53.225 72.5754 52.8417 72.5754 51.9474Z" fill="#F9F4F2"/>
</svg>
