<svg width="157" height="20" viewBox="0 0 157 20" fill="none" xmlns="http://www.w3.org/2000/svg">
<path d="M19.16 0.916981C18.2933 1.94365 17.54 3.32365 16.9 5.05698C16.2733 6.77698 15.96 8.51698 15.96 10.277C15.96 12.0503 16.2733 13.8036 16.9 15.537C17.54 17.257 18.2933 18.6303 19.16 19.657H16.98C16.1267 18.6703 15.4133 17.317 14.84 15.597C14.28 13.8636 14 12.0903 14 10.277C14 8.47698 14.28 6.71698 14.84 4.99698C15.4133 3.26365 16.1267 1.90365 16.98 0.916981H19.16ZM21.1241 3.49698C22.1107 2.15031 23.4041 1.47698 25.0041 1.47698C26.6041 1.47698 27.8907 2.15031 28.8641 3.49698C29.8374 4.83032 30.3241 6.55032 30.3241 8.65698C30.3241 10.7636 29.8374 12.4903 28.8641 13.837C27.8907 15.1703 26.6041 15.837 25.0041 15.837C23.4041 15.837 22.1107 15.1703 21.1241 13.837C20.1507 12.4903 19.6641 10.7636 19.6641 8.65698C19.6641 6.55032 20.1507 4.83032 21.1241 3.49698ZM25.0041 3.37698C24.0041 3.37698 23.1907 3.86365 22.5641 4.83698C21.9374 5.79698 21.6241 7.07032 21.6241 8.65698C21.6241 10.2436 21.9374 11.5236 22.5641 12.497C23.1907 13.457 24.0041 13.937 25.0041 13.937C25.9907 13.937 26.7974 13.457 27.4241 12.497C28.0507 11.5236 28.3641 10.2436 28.3641 8.65698C28.3641 7.07032 28.0507 5.79698 27.4241 4.83698C26.7974 3.86365 25.9907 3.37698 25.0041 3.37698ZM33.5842 1.65698H35.5442V15.657H33.5842V4.39698C32.9976 4.87698 32.1576 5.15698 31.0642 5.23698V3.35698C31.5976 3.30365 32.1309 3.13032 32.6642 2.83698C33.2109 2.53032 33.5176 2.13698 33.5842 1.65698ZM39.7561 1.65698H41.7161V15.657H39.7561V4.39698C39.1694 4.87698 38.3294 5.15698 37.2361 5.23698V3.35698C37.7694 3.30365 38.3028 3.13032 38.8361 2.83698C39.3828 2.53032 39.6894 2.13698 39.7561 1.65698ZM47.562 15.797C46.2954 15.797 45.2087 15.4036 44.302 14.617C43.3954 13.8303 42.942 12.837 42.942 11.637H44.902C44.902 12.2903 45.162 12.8303 45.682 13.257C46.202 13.6836 46.8154 13.897 47.522 13.897C48.3087 13.897 48.9354 13.6636 49.402 13.197C49.882 12.717 50.122 12.077 50.122 11.277C50.122 10.437 49.842 9.77698 49.282 9.29698C48.7354 8.80365 48.0287 8.55698 47.162 8.55698H46.682V6.93698H47.082C47.6687 6.93698 48.1687 6.77032 48.582 6.43698C49.0087 6.09032 49.222 5.64365 49.222 5.09698C49.222 4.57698 49.0687 4.15698 48.762 3.83698C48.4554 3.50365 48.0487 3.33698 47.542 3.33698C47.0087 3.33698 46.582 3.49698 46.262 3.81698C45.9554 4.12365 45.802 4.48365 45.802 4.89698H43.842C43.842 3.91031 44.202 3.09698 44.922 2.45698C45.642 1.81698 46.5087 1.49698 47.522 1.49698C48.5487 1.49698 49.4154 1.79698 50.122 2.39698C50.8287 2.99698 51.182 3.77698 51.182 4.73698C51.182 6.07032 50.5887 7.06365 49.402 7.71698C51.1887 8.34365 52.082 9.61698 52.082 11.537C52.082 12.7636 51.642 13.7836 50.762 14.597C49.882 15.397 48.8154 15.797 47.562 15.797ZM52.4453 0.916981H54.6253C55.4786 1.90365 56.1853 3.26365 56.7453 4.99698C57.3186 6.71698 57.6053 8.47698 57.6053 10.277C57.6053 12.0903 57.3186 13.8636 56.7453 15.597C56.1853 17.317 55.4786 18.6703 54.6253 19.657H52.4453C53.312 18.6303 54.0586 17.257 54.6853 15.537C55.3253 13.8036 55.6453 12.0503 55.6453 10.277C55.6453 8.51698 55.3253 6.77698 54.6853 5.05698C54.0586 3.32365 53.312 1.94365 52.4453 0.916981ZM66.1623 1.65698H68.1223V15.657H66.1623V4.39698C65.5757 4.87698 64.7357 5.15698 63.6423 5.23698V3.35698C64.1757 3.30365 64.709 3.13032 65.2423 2.83698C65.789 2.53032 66.0957 2.13698 66.1623 1.65698ZM69.4883 15.657V15.117C69.4883 14.117 69.7083 13.217 70.1483 12.417C70.5883 11.617 71.1149 10.957 71.7283 10.437C72.3549 9.90365 72.9749 9.41032 73.5883 8.95698C74.2149 8.49032 74.7483 7.98365 75.1883 7.43698C75.6283 6.87698 75.8483 6.28365 75.8483 5.65698C75.8483 5.03032 75.6349 4.49698 75.2083 4.05698C74.7816 3.61698 74.2616 3.39698 73.6483 3.39698C73.0616 3.39698 72.5483 3.62365 72.1083 4.07698C71.6683 4.53032 71.4483 5.05698 71.4483 5.65698H69.4883C69.4883 4.51032 69.8949 3.53032 70.7083 2.71698C71.5216 1.90365 72.5016 1.49698 73.6483 1.49698C74.7949 1.49698 75.7749 1.91032 76.5883 2.73698C77.4016 3.55032 77.8083 4.52365 77.8083 5.65698C77.8083 6.39032 77.6216 7.06365 77.2483 7.67698C76.8883 8.29032 76.4349 8.82365 75.8883 9.27698C75.3416 9.73032 74.7816 10.1703 74.2083 10.597C73.6483 11.0103 73.1283 11.4903 72.6483 12.037C72.1816 12.5836 71.8749 13.157 71.7283 13.757H77.8683V15.657H69.4883ZM83.3433 15.797C82.0766 15.797 80.9899 15.4036 80.0833 14.617C79.1766 13.8303 78.7233 12.837 78.7233 11.637H80.6833C80.6833 12.2903 80.9433 12.8303 81.4633 13.257C81.9833 13.6836 82.5966 13.897 83.3033 13.897C84.0899 13.897 84.7166 13.6636 85.1833 13.197C85.6633 12.717 85.9033 12.077 85.9033 11.277C85.9033 10.437 85.6233 9.77698 85.0633 9.29698C84.5166 8.80365 83.8099 8.55698 82.9433 8.55698H82.4633V6.93698H82.8633C83.4499 6.93698 83.9499 6.77032 84.3633 6.43698C84.7899 6.09032 85.0033 5.64365 85.0033 5.09698C85.0033 4.57698 84.8499 4.15698 84.5433 3.83698C84.2366 3.50365 83.8299 3.33698 83.3233 3.33698C82.7899 3.33698 82.3633 3.49698 82.0433 3.81698C81.7366 4.12365 81.5833 4.48365 81.5833 4.89698H79.6233C79.6233 3.91031 79.9833 3.09698 80.7033 2.45698C81.4233 1.81698 82.2899 1.49698 83.3033 1.49698C84.3299 1.49698 85.1966 1.79698 85.9033 2.39698C86.6099 2.99698 86.9633 3.77698 86.9633 4.73698C86.9633 6.07032 86.3699 7.06365 85.1833 7.71698C86.9699 8.34365 87.8633 9.61698 87.8633 11.537C87.8633 12.7636 87.4233 13.7836 86.5433 14.597C85.6633 15.397 84.5966 15.797 83.3433 15.797ZM104 10.357V12.197H102.24V15.657H100.28V12.197H93.9195V10.357L100.28 1.65698H102.24V10.357H104ZM96.1995 10.357H100.28V4.93698L96.1995 10.357ZM109.961 15.817C108.467 15.817 107.234 15.3303 106.261 14.357C105.287 13.3836 104.801 12.1503 104.801 10.657H106.761C106.761 11.6036 107.061 12.3836 107.661 12.997C108.261 13.6103 109.034 13.917 109.981 13.917C110.927 13.917 111.694 13.6236 112.281 13.037C112.867 12.4503 113.161 11.677 113.161 10.717C113.161 9.75698 112.861 8.99032 112.261 8.41698C111.661 7.83032 110.867 7.53698 109.881 7.53698C109.147 7.53698 108.481 7.76365 107.881 8.21698L106.441 7.15698L107.901 1.65698H114.281V3.55698H109.341L108.741 5.87698C109.101 5.71698 109.474 5.63698 109.861 5.63698C111.367 5.63698 112.621 6.11698 113.621 7.07698C114.621 8.02365 115.121 9.23698 115.121 10.717C115.121 12.2103 114.634 13.437 113.661 14.397C112.701 15.3436 111.467 15.817 109.961 15.817ZM124.929 14.317C123.929 15.317 122.716 15.817 121.289 15.817C119.862 15.817 118.642 15.3236 117.629 14.337C116.629 13.337 116.129 12.1103 116.129 10.657C116.129 9.65698 116.356 8.64365 116.809 7.61698C117.262 6.57698 117.849 5.65698 118.569 4.85698C119.289 4.04365 120.109 3.35032 121.029 2.77698C121.949 2.19032 122.856 1.81698 123.749 1.65698V3.49698C123.029 3.69698 122.309 4.03031 121.589 4.49698C120.882 4.96365 120.302 5.49032 119.849 6.07698C120.396 5.75698 120.969 5.59698 121.569 5.59698C122.969 5.59698 124.129 6.10365 125.049 7.11698C125.982 8.11698 126.449 9.29698 126.449 10.657C126.449 12.0836 125.942 13.3036 124.929 14.317ZM121.309 13.917C122.189 13.917 122.936 13.6036 123.549 12.977C124.176 12.337 124.489 11.5636 124.489 10.657C124.489 9.73698 124.182 8.96365 123.569 8.33698C122.956 7.71032 122.202 7.39698 121.309 7.39698C120.416 7.39698 119.656 7.71032 119.029 8.33698C118.416 8.96365 118.102 9.73698 118.089 10.657C118.089 11.5636 118.402 12.337 119.029 12.977C119.656 13.6036 120.416 13.917 121.309 13.917ZM126.416 1.65698H135.496V3.45698L129.256 15.657H127.216L133.476 3.45698H126.416V1.65698Z" fill="#F9F4F2"/>
<path fill-rule="evenodd" clip-rule="evenodd" d="M151.707 10.6064L156.657 5.65674L155.95 4.94963L151 9.89934L146.05 4.94971L145.343 5.65681L150.293 10.6064L150.293 10.6065L151 11.3136L151 11.3136L151 11.3137L151.707 10.6066L151.707 10.6064Z" fill="#F9F4F2"/>
</svg>
