<svg width="222" height="134" viewBox="0 0 222 134" fill="none" xmlns="http://www.w3.org/2000/svg">
<path fill-rule="evenodd" clip-rule="evenodd" d="M136.85 62.8228C139.85 67.3228 142.015 69.8228 146.85 72.6279C141.978 76.0817 139.85 78.8228 136.85 83.8228H138.215C141.85 77.8228 144.35 75.8228 148.861 72.5499C144.792 69.8293 141.35 67.8228 138.215 62.8228H136.85Z" fill="#353535"/>
<path opacity="0.3" d="M114.493 102.189L114.772 101.774L114.493 102.189ZM205.784 72.8691L205.296 72.7598L205.784 72.8691ZM136.17 7.61436C150.534 3.76549 166.288 1.01048 179.387 2.77532C185.93 3.65688 191.783 5.66279 196.468 9.19863C201.146 12.729 204.691 17.8072 206.59 24.8925L207.556 24.6337C205.604 17.3486 201.939 12.0744 197.07 8.40041C192.209 4.73184 186.178 2.68128 179.52 1.78428C166.218 -0.00800909 150.306 2.79148 135.912 6.64843L136.17 7.61436ZM176.529 120.612C162.723 124.311 152.2 122.892 142.69 118.925C133.14 114.94 124.62 108.397 114.772 101.774L114.214 102.604C123.986 109.175 132.635 115.813 142.305 119.847C152.015 123.898 162.764 125.335 176.788 121.577L176.529 120.612ZM206.59 24.8925C209.708 36.5283 210.31 44.3219 209.679 51.2703C209.046 58.2481 207.175 64.3697 205.296 72.7598L206.272 72.9784C208.131 64.6788 210.034 58.4248 210.675 51.3607C211.319 44.2672 210.696 36.3527 207.556 24.6337L206.59 24.8925ZM205.296 72.7598C203.914 78.9323 202.96 84.6423 201.93 89.7724C200.896 94.9204 199.781 99.5071 198.07 103.525C196.363 107.534 194.065 110.97 190.665 113.818C187.263 116.667 182.732 118.949 176.529 120.612L176.788 121.577C183.094 119.888 187.767 117.55 191.308 114.584C194.851 111.616 197.234 108.041 198.99 103.917C200.743 99.8 201.874 95.1294 202.91 89.9693C203.95 84.7914 204.891 79.1427 206.272 72.9784L205.296 72.7598ZM79.6362 48.007C83.4721 38.2862 92.0663 29.6658 102.506 22.7247C112.937 15.7889 125.16 10.5646 136.17 7.61436L135.912 6.64843C124.806 9.62425 112.482 14.8908 101.952 21.8919C91.4304 28.8877 82.648 37.6502 78.706 47.6399L79.6362 48.007ZM114.772 101.774C106.222 96.0242 97.8218 90.3462 91.183 84.4082L90.5164 85.1536C97.2162 91.1462 105.678 96.863 114.214 102.604L114.772 101.774Z" fill="#B7A49F"/>
<path d="M218.825 81.9654L219.291 82.1467L218.825 81.9654ZM182.039 114.462L181.771 114.04L182.039 114.462ZM127.983 129.256L127.773 129.71L127.983 129.256ZM97.1066 21.1685C104.424 8.49388 119.233 3.55847 135.557 3.68837C151.868 3.81817 169.548 9.01193 182.379 16.4201L182.879 15.5541C169.905 8.06317 152.056 2.81964 135.565 2.6884C119.088 2.55727 103.822 7.53708 96.2406 20.6685L97.1066 21.1685ZM182.379 16.4201C195.204 23.8246 206.181 35.1367 212.956 47.1327C219.739 59.1424 222.265 71.747 218.359 81.7841L219.291 82.1467C223.351 71.713 220.682 58.778 213.827 46.641C206.964 34.4903 195.86 23.0486 182.879 15.5541L182.379 16.4201ZM218.359 81.7841C214.005 92.9709 208.491 98.7189 202.286 102.818C199.17 104.877 195.875 106.524 192.43 108.24C188.993 109.952 185.412 111.73 181.771 114.04L182.307 114.884C185.897 112.606 189.433 110.85 192.876 109.135C196.312 107.423 199.663 105.75 202.838 103.653C209.215 99.4387 214.863 93.5256 219.291 82.1467L218.359 81.7841ZM181.771 114.04C176.418 117.435 171.819 120.747 167.603 123.607C163.376 126.475 159.528 128.894 155.626 130.554C151.732 132.21 147.789 133.108 143.374 132.93C138.955 132.752 134.035 131.495 128.192 128.802L127.773 129.71C133.701 132.442 138.751 133.745 143.334 133.929C147.921 134.114 152.012 133.178 156.017 131.474C160.014 129.774 163.93 127.308 168.164 124.435C172.41 121.554 176.97 118.269 182.307 114.884L181.771 114.04ZM90.8492 51.315C90.6339 38.5855 92.565 29.0347 97.1066 21.1685L96.2406 20.6685C91.5769 28.7461 89.6323 38.4965 89.8494 51.3319L90.8492 51.315ZM128.192 128.802C114.507 122.494 102.809 107.776 97.1328 94.6253L96.2146 95.0216C101.955 108.322 113.799 123.269 127.773 129.71L128.192 128.802Z" fill="#B7A49F"/>
<path d="M9.31203 74.364C9.31203 73.62 9.15603 72.996 8.84403 72.492C8.53203 71.988 8.14203 71.628 7.67403 71.412C7.20603 71.196 6.70203 71.004 6.16203 70.836C5.62203 70.656 5.11803 70.506 4.65003 70.386C4.18203 70.266 3.79203 70.062 3.48003 69.774C3.16803 69.474 3.01203 69.096 3.01203 68.64C3.01203 68.136 3.19203 67.734 3.55203 67.434C3.92403 67.122 4.41603 66.966 5.02803 66.966C5.65203 66.966 6.14403 67.134 6.50403 67.47C6.86403 67.794 7.04403 68.28 7.04403 68.928H8.80803C8.80803 67.812 8.46003 66.924 7.76403 66.264C7.06803 65.592 6.15603 65.256 5.02803 65.256C3.88803 65.256 2.97003 65.556 2.27403 66.156C1.59003 66.744 1.24803 67.56 1.24803 68.604C1.24803 69.288 1.40403 69.864 1.71603 70.332C2.02803 70.8 2.41803 71.142 2.88603 71.358C3.35403 71.562 3.85803 71.76 4.39803 71.952C4.93803 72.132 5.44203 72.294 5.91003 72.438C6.37803 72.582 6.76803 72.816 7.08003 73.14C7.39203 73.464 7.54803 73.872 7.54803 74.364C7.54803 75.048 7.32603 75.564 6.88203 75.912C6.45003 76.26 5.86803 76.434 5.13603 76.434C4.38003 76.434 3.76803 76.23 3.30003 75.822C2.84403 75.402 2.61603 74.844 2.61603 74.148H0.852031C0.852031 75.3 1.26003 76.254 2.07603 77.01C2.89203 77.766 3.89403 78.144 5.08203 78.144C6.28203 78.144 7.28403 77.802 8.08803 77.118C8.90403 76.422 9.31203 75.504 9.31203 74.364ZM11.8956 76.794C11.0076 75.894 10.5636 74.802 10.5636 73.518C10.5636 72.234 11.0016 71.136 11.8776 70.224C12.7656 69.312 13.8516 68.856 15.1356 68.856C16.3596 68.856 17.4276 69.27 18.3396 70.098C19.2516 70.914 19.7316 71.994 19.7796 73.338C19.7796 73.638 19.7616 73.908 19.7256 74.148H12.4536C12.5256 74.82 12.8076 75.372 13.2996 75.804C13.8036 76.224 14.4156 76.434 15.1356 76.434C16.0236 76.434 16.7436 76.134 17.2956 75.534L19.4016 75.552C19.0056 76.332 18.4296 76.962 17.6736 77.442C16.9176 77.91 16.0896 78.144 15.1896 78.144C13.8936 78.144 12.7956 77.694 11.8956 76.794ZM12.4536 72.708H17.8896C17.7216 72.084 17.3856 71.574 16.8816 71.178C16.3896 70.77 15.8256 70.566 15.1896 70.566C14.5056 70.566 13.9176 70.764 13.4256 71.16C12.9456 71.556 12.6216 72.072 12.4536 72.708ZM29.041 78V73.266C29.041 71.802 28.681 70.704 27.961 69.972C27.241 69.228 26.281 68.856 25.081 68.856C23.881 68.856 22.921 69.228 22.201 69.972C21.481 70.704 21.121 71.802 21.121 73.266V78H22.885V73.266C22.885 71.466 23.617 70.566 25.081 70.566C26.545 70.566 27.277 71.466 27.277 73.266V78H29.041ZM39.661 73.5C39.661 74.784 39.211 75.882 38.311 76.794C37.411 77.694 36.319 78.144 35.035 78.144C33.751 78.144 32.653 77.694 31.741 76.794C30.841 75.882 30.391 74.784 30.391 73.5C30.391 72.216 30.841 71.124 31.741 70.224C32.653 69.312 33.751 68.856 35.035 68.856C36.199 68.856 37.147 69.288 37.879 70.152V65.4H39.661V73.5ZM35.035 70.566C34.219 70.566 33.535 70.848 32.983 71.412C32.431 71.976 32.155 72.672 32.155 73.5C32.155 74.328 32.425 75.024 32.965 75.588C33.517 76.152 34.207 76.434 35.035 76.434C35.851 76.434 36.535 76.152 37.087 75.588C37.639 75.024 37.915 74.328 37.915 73.5C37.915 72.684 37.633 71.994 37.069 71.43C36.517 70.854 35.839 70.566 35.035 70.566ZM50.7843 78.144C49.5003 78.144 48.4023 77.694 47.4903 76.794C46.5903 75.882 46.1403 74.784 46.1403 73.5C46.1403 72.216 46.5903 71.124 47.4903 70.224C48.4023 69.312 49.5003 68.856 50.7843 68.856C52.0683 68.856 53.1603 69.312 54.0603 70.224C54.9603 71.124 55.4103 72.216 55.4103 73.5V78H53.6463V76.578C53.4303 77.022 53.0523 77.394 52.5123 77.694C51.9843 77.994 51.4083 78.144 50.7843 78.144ZM48.7323 75.588C49.2963 76.152 49.9863 76.434 50.8023 76.434C51.6183 76.434 52.2963 76.152 52.8363 75.588C53.3883 75.024 53.6643 74.328 53.6643 73.5C53.6643 72.672 53.3883 71.976 52.8363 71.412C52.2963 70.848 51.6183 70.566 50.8023 70.566C49.9743 70.566 49.2843 70.848 48.7323 71.412C48.1803 71.976 47.9043 72.672 47.9043 73.5C47.9043 74.316 48.1803 75.012 48.7323 75.588ZM61.9796 78V73.302C61.9796 71.862 62.3216 70.782 63.0056 70.062C63.7016 69.33 64.6196 68.964 65.7596 68.964H65.9396V70.674H65.7596C64.4156 70.674 63.7436 71.55 63.7436 73.302V78H61.9796ZM68.0816 76.794C67.1936 75.894 66.7496 74.802 66.7496 73.518C66.7496 72.234 67.1876 71.136 68.0636 70.224C68.9516 69.312 70.0376 68.856 71.3216 68.856C72.5456 68.856 73.6136 69.27 74.5256 70.098C75.4376 70.914 75.9176 71.994 75.9656 73.338C75.9656 73.638 75.9476 73.908 75.9116 74.148H68.6396C68.7116 74.82 68.9936 75.372 69.4856 75.804C69.9896 76.224 70.6016 76.434 71.3216 76.434C72.2096 76.434 72.9296 76.134 73.4816 75.534L75.5876 75.552C75.1916 76.332 74.6156 76.962 73.8596 77.442C73.1036 77.91 72.2756 78.144 71.3756 78.144C70.0796 78.144 68.9816 77.694 68.0816 76.794ZM68.6396 72.708H74.0756C73.9076 72.084 73.5716 71.574 73.0676 71.178C72.5756 70.77 72.0116 70.566 71.3756 70.566C70.6916 70.566 70.1036 70.764 69.6116 71.16C69.1316 71.556 68.8076 72.072 68.6396 72.708ZM86.487 73.5V81.6H84.705V76.848C83.973 77.712 83.025 78.144 81.861 78.144C80.577 78.144 79.479 77.694 78.567 76.794C77.667 75.882 77.217 74.784 77.217 73.5C77.217 72.216 77.667 71.124 78.567 70.224C79.479 69.312 80.577 68.856 81.861 68.856C83.145 68.856 84.237 69.312 85.137 70.224C86.037 71.124 86.487 72.216 86.487 73.5ZM81.861 76.434C82.665 76.434 83.343 76.152 83.895 75.588C84.459 75.012 84.741 74.316 84.741 73.5C84.741 72.672 84.465 71.976 83.913 71.412C83.361 70.848 82.677 70.566 81.861 70.566C81.033 70.566 80.343 70.848 79.791 71.412C79.251 71.976 78.981 72.672 78.981 73.5C78.981 74.328 79.257 75.024 79.809 75.588C80.361 76.152 81.045 76.434 81.861 76.434ZM95.8527 69H94.0887V73.734C94.0887 75.534 93.3567 76.434 91.8927 76.434C90.4287 76.434 89.6967 75.534 89.6967 73.734V69H87.9327V73.734C87.9327 75.198 88.2927 76.302 89.0127 77.046C89.7327 77.778 90.6927 78.144 91.8927 78.144C93.0927 78.144 94.0527 77.778 94.7727 77.046C95.4927 76.302 95.8527 75.198 95.8527 73.734V69ZM98.5347 76.794C97.6467 75.894 97.2027 74.802 97.2027 73.518C97.2027 72.234 97.6407 71.136 98.5167 70.224C99.4047 69.312 100.491 68.856 101.775 68.856C102.999 68.856 104.067 69.27 104.979 70.098C105.891 70.914 106.371 71.994 106.419 73.338C106.419 73.638 106.401 73.908 106.365 74.148H99.0927C99.1647 74.82 99.4467 75.372 99.9387 75.804C100.443 76.224 101.055 76.434 101.775 76.434C102.663 76.434 103.383 76.134 103.935 75.534L106.041 75.552C105.645 76.332 105.069 76.962 104.313 77.442C103.557 77.91 102.729 78.144 101.829 78.144C100.533 78.144 99.4347 77.694 98.5347 76.794ZM99.0927 72.708H104.529C104.361 72.084 104.025 71.574 103.521 71.178C103.029 70.77 102.465 70.566 101.829 70.566C101.145 70.566 100.557 70.764 100.065 71.16C99.5847 71.556 99.2607 72.072 99.0927 72.708ZM111.108 78.144C110.124 78.144 109.29 77.892 108.606 77.388C107.922 76.872 107.58 76.176 107.58 75.3H109.272C109.272 75.684 109.446 75.99 109.794 76.218C110.154 76.446 110.604 76.56 111.144 76.56C111.696 76.56 112.122 76.452 112.422 76.236C112.722 76.02 112.872 75.732 112.872 75.372C112.872 75 112.692 74.718 112.332 74.526C111.984 74.334 111.558 74.19 111.054 74.094C110.55 73.986 110.046 73.866 109.542 73.734C109.038 73.59 108.606 73.326 108.246 72.942C107.898 72.558 107.724 72.042 107.724 71.394C107.724 70.65 108.042 70.044 108.678 69.576C109.314 69.096 110.106 68.856 111.054 68.856C112.014 68.856 112.8 69.096 113.412 69.576C114.036 70.056 114.348 70.716 114.348 71.556H112.656C112.656 71.22 112.494 70.95 112.17 70.746C111.858 70.53 111.474 70.422 111.018 70.422C110.574 70.422 110.208 70.524 109.92 70.728C109.632 70.932 109.488 71.196 109.488 71.52C109.488 71.844 109.662 72.096 110.01 72.276C110.358 72.444 110.784 72.576 111.288 72.672C111.792 72.768 112.296 72.894 112.8 73.05C113.304 73.194 113.73 73.464 114.078 73.86C114.438 74.244 114.624 74.76 114.636 75.408C114.648 76.296 114.324 76.974 113.664 77.442C113.016 77.91 112.164 78.144 111.108 78.144ZM120.326 70.71H118.382V73.734C118.382 75.366 119.03 76.236 120.326 76.344V78.054C119.186 78.006 118.28 77.628 117.608 76.92C116.948 76.2 116.618 75.144 116.618 73.752V70.71H115.286V69H116.618V65.778H118.382V69H120.326V70.71Z" fill="#353535"/>
</svg>
