<svg width="63" height="17" viewBox="0 0 63 17" fill="none" xmlns="http://www.w3.org/2000/svg">
<path fill-rule="evenodd" clip-rule="evenodd" d="M62.9594 4.95111C62.9219 4.10097 62.7844 3.51651 62.5874 3.01006C62.3842 2.47248 62.0716 1.99119 61.662 1.59108C61.2618 1.18475 60.7773 0.869018 60.2458 0.669028C59.7363 0.47209 59.1548 0.334612 58.3045 0.297129C57.4478 0.256472 57.1759 0.24707 55.0031 0.24707C52.8304 0.24707 52.5585 0.256472 51.705 0.293954C50.8547 0.331437 50.2701 0.469038 49.7637 0.665853C49.2259 0.869018 48.7445 1.18158 48.3443 1.59108C47.9379 1.99119 47.6222 2.47566 47.422 3.00701C47.2251 3.51651 47.0876 4.0978 47.0501 4.94794C47.0094 5.80443 47 6.07633 47 8.24863C47 10.4209 47.0094 10.6928 47.0469 11.5462C47.0844 12.3963 47.222 12.9808 47.419 13.4872C47.6222 14.0248 47.9379 14.5061 48.3443 14.9062C48.7445 15.3125 49.229 15.6282 49.7605 15.8282C50.2701 16.0252 50.8515 16.1627 51.7019 16.2001C52.5553 16.2377 52.8274 16.247 55.0001 16.247C57.1728 16.247 57.4448 16.2377 58.2983 16.2001C59.1486 16.1627 59.7332 16.0252 60.2396 15.8282C61.3151 15.4125 62.1654 14.5624 62.5812 13.4872C62.7781 12.9777 62.9157 12.3963 62.9532 11.5462C62.9907 10.6928 63.0001 10.4209 63.0001 8.24863C63.0001 6.07633 62.9969 5.80443 62.9594 4.95111ZM61.5183 11.4836C61.4838 12.265 61.3526 12.687 61.2431 12.9683C60.9742 13.6653 60.4209 14.2185 59.7238 14.4874C59.4424 14.5968 59.0173 14.728 58.2388 14.7624C57.3947 14.8 57.1416 14.8092 55.0063 14.8092C52.8711 14.8092 52.6148 14.8 51.7737 14.7624C50.9922 14.728 50.5701 14.5968 50.2888 14.4874C49.9418 14.3592 49.626 14.156 49.3697 13.8904C49.104 13.6309 48.9008 13.3183 48.7725 12.9715C48.6631 12.6902 48.5319 12.265 48.4975 11.4868C48.4599 10.6429 48.4506 10.3897 48.4506 8.25486C48.4506 6.12004 48.4599 5.86377 48.4975 5.02303C48.5319 4.24163 48.6631 3.81967 48.7725 3.53836C48.9008 3.19137 49.104 2.87576 49.3729 2.61936C49.6323 2.35368 49.9449 2.15052 50.2919 2.02244C50.5733 1.91305 50.9985 1.78179 51.7769 1.74736C52.621 1.70988 52.8743 1.70048 55.0094 1.70048C57.1478 1.70048 57.4009 1.70988 58.242 1.74736C59.0235 1.78179 59.4456 1.91305 59.7269 2.02244C60.0739 2.15052 60.3897 2.35368 60.646 2.61936C60.9117 2.87881 61.1149 3.19137 61.2431 3.53836C61.3526 3.81967 61.4838 4.24468 61.5183 5.02303C61.5558 5.86694 61.5652 6.12004 61.5652 8.25486C61.5652 10.3897 61.5558 10.6397 61.5183 11.4836ZM55.0036 4.13818C52.734 4.13818 50.8926 5.97912 50.8926 8.24836C50.8926 10.5176 52.734 12.3585 55.0036 12.3585C57.2733 12.3585 59.1146 10.5176 59.1146 8.24836C59.1146 5.97912 57.2733 4.13818 55.0036 4.13818ZM55.0036 10.9145C53.5312 10.9145 52.3369 9.72057 52.3369 8.24836C52.3369 6.77615 53.5312 5.58219 55.0036 5.58219C56.4761 5.58219 57.6703 6.77615 57.6703 8.24836C57.6703 9.72057 56.4761 10.9145 55.0036 10.9145ZM59.2771 4.93568C59.8072 4.93568 60.237 4.50603 60.237 3.97614C60.237 3.44613 59.8072 3.0166 59.2771 3.0166C58.7471 3.0166 58.3174 3.44613 58.3174 3.97614C58.3174 4.50603 58.7471 4.93568 59.2771 4.93568Z" fill="#F9F4F2"/>
<path d="M6.54 2.90374H8.00067V0.359737C7.74867 0.32507 6.882 0.24707 5.87267 0.24707C3.76667 0.24707 2.324 1.57174 2.324 4.0064V6.24707H0V9.09107H2.324V16.2471H5.17333V9.09174H7.40333L7.75733 6.24774H5.17267V4.2884C5.17333 3.4664 5.39467 2.90374 6.54 2.90374V2.90374Z" fill="#F9F4F2"/>
</svg>
