<svg width="17" height="17" viewBox="0 0 17 17" fill="none" xmlns="http://www.w3.org/2000/svg">
<path d="M16.1533 12.0943V14.5261C16.1543 14.7518 16.1079 14.9753 16.0173 15.1821C15.9267 15.389 15.7938 15.5746 15.6271 15.7273C15.4604 15.8799 15.2636 15.9961 15.0493 16.0684C14.8351 16.1407 14.608 16.1676 14.3827 16.1473C11.8834 15.8762 9.48266 15.0239 7.37334 13.6587C5.4109 12.4142 3.7471 10.7537 2.50008 8.79511C1.12743 6.68041 0.273195 4.27276 0.00659248 1.76719C-0.0137043 1.54303 0.0129886 1.31711 0.0849711 1.10381C0.156954 0.890515 0.272649 0.694512 0.424691 0.528284C0.576733 0.362055 0.76179 0.229243 0.96808 0.138304C1.17437 0.0473647 1.39737 0.000290545 1.62289 7.85898e-05H4.05953C4.4537 -0.00379321 4.83583 0.135513 5.1347 0.392031C5.43357 0.648549 5.62878 1.00478 5.68395 1.39431C5.78679 2.17255 5.97752 2.93667 6.25249 3.6721C6.36177 3.96224 6.38542 4.27755 6.32064 4.58069C6.25587 4.88383 6.10537 5.16208 5.887 5.38247L4.85549 6.41194C6.01172 8.44132 7.69535 10.1216 9.72876 11.2755L10.7603 10.2461C10.9811 10.0281 11.2599 9.87795 11.5636 9.8133C11.8674 9.74865 12.1833 9.77225 12.474 9.88131C13.2109 10.1557 13.9766 10.3461 14.7563 10.4487C15.1509 10.5043 15.5112 10.7026 15.7688 11.006C16.0264 11.3094 16.1632 11.6967 16.1533 12.0943Z" fill="#F9F4F2"/>
</svg>
